<svg height="69" width="195" xmlns="http://www.w3.org/2000/svg"><path d="M3.406 28.6V.96H20.67v3.96H7.881v7.682h11.365v3.96H7.88V28.6zm30.333.475c-1.425 0-2.726-.25-3.9-.752s-2.172-1.221-2.99-2.158-1.452-2.073-1.901-3.406-.673-2.818-.673-4.455.224-3.122.673-4.455 1.082-2.468 1.9-3.406 1.816-1.656 2.99-2.158 2.476-.752 3.901-.752 2.726.25 3.9.752 2.172 1.221 2.99 2.158 1.453 2.073 1.901 3.406.674 2.818.674 4.455-.225 3.122-.674 4.455-1.082 2.468-1.9 3.406-1.815 1.656-2.99 2.158-2.475.752-3.9.752zm0-3.564c1.479 0 2.667-.455 3.564-1.366s1.347-2.277 1.347-4.099v-3.484c0-1.822-.45-3.188-1.347-4.099s-2.085-1.366-3.564-1.366-2.666.455-3.564 1.366-1.346 2.277-1.346 4.099v3.484c0 1.822.449 3.188 1.346 4.099s2.086 1.366 3.564 1.366zM47.995 28.6V8.008h4.317v3.96h.198c.29-1.056.897-1.98 1.821-2.772s2.205-1.188 3.841-1.188h1.149v4.158h-1.703c-1.716 0-3.03.277-3.94.832s-1.366 1.372-1.366 2.455V28.6zm21.701.475c-1.954 0-3.59-.343-4.91-1.03s-2.469-1.636-3.446-2.85l2.772-2.535c.766.924 1.617 1.643 2.555 2.158s2.026.772 3.267.772c1.267 0 2.21-.244 2.831-.732s.93-1.168.93-2.04c0-.66-.217-1.22-.653-1.683s-1.194-.759-2.277-.89l-1.9-.238c-2.113-.264-3.77-.878-4.97-1.842s-1.802-2.395-1.802-4.296c0-1.003.185-1.894.554-2.673s.891-1.439 1.564-1.98 1.479-.957 2.416-1.248 1.973-.435 3.109-.435c1.848 0 3.359.29 4.534.871s2.224 1.386 3.148 2.416l-2.653 2.534c-.528-.634-1.221-1.181-2.08-1.643s-1.84-.693-2.95-.693c-1.187 0-2.065.237-2.633.712s-.851 1.096-.851 1.862c0 .792.25 1.386.752 1.782s1.307.686 2.416.87l1.9.238c2.271.344 3.928 1.01 4.97 2s1.565 2.317 1.565 3.98c0 1.003-.192 1.907-.575 2.713s-.93 1.498-1.643 2.079-1.57 1.03-2.574 1.346-2.125.475-3.366.475zm18.73-.475c-1.504 0-2.64-.39-3.405-1.168s-1.148-1.881-1.148-3.307V11.532h-3.208V8.008h1.743c.712 0 1.207-.158 1.485-.475s.415-.832.415-1.545V2.385h3.881v5.623h4.317v3.524h-4.317v13.544h4V28.6zm16.83.475c-1.478 0-2.798-.25-3.96-.752s-2.15-1.221-2.97-2.158-1.445-2.073-1.88-3.406-.654-2.818-.654-4.455.218-3.122.654-4.455 1.062-2.468 1.88-3.406 1.81-1.656 2.97-2.158 2.482-.752 3.96-.752c1.506 0 2.832.264 3.98.792s2.106 1.26 2.872 2.198 1.34 2.026 1.722 3.267.574 2.574.574 4v1.623h-14.137v.673c0 1.584.469 2.884 1.406 3.9s2.277 1.525 4.02 1.525c1.267 0 2.336-.277 3.207-.831s1.61-1.307 2.218-2.258l2.534 2.495c-.766 1.267-1.874 2.277-3.326 3.03s-3.142 1.128-5.07 1.128zm0-18.176c-.738 0-1.418.132-2.039.396s-1.148.633-1.584 1.109-.772 1.042-1.01 1.702-.356 1.386-.356 2.178v.278h9.583v-.396c0-1.584-.409-2.858-1.227-3.822s-1.94-1.445-3.366-1.445zm13.94 17.701V8.008h4.316v3.96h.198c.29-1.056.898-1.98 1.822-2.772s2.204-1.188 3.841-1.188h1.149v4.158h-1.703c-1.716 0-3.03.277-3.94.832s-1.367 1.372-1.367 2.455V28.6zm40.907-3.762c-.343.502-.766 1.003-1.267 1.505s-1.103.957-1.802 1.366-1.492.74-2.376.99-1.868.376-2.95.376c-1.32 0-2.489-.185-3.505-.554s-1.881-.885-2.594-1.545-1.254-1.445-1.623-2.356-.555-1.894-.555-2.95.172-1.987.515-2.792.792-1.518 1.346-2.138 1.195-1.175 1.921-1.663 1.485-.931 2.277-1.327c-1.056-1.162-1.888-2.27-2.495-3.326s-.91-2.218-.91-3.485c0-.924.164-1.782.494-2.574s.799-1.472 1.406-2.04 1.34-1.016 2.198-1.346 1.815-.495 2.871-.495c.977 0 1.868.145 2.673.436s1.492.693 2.06 1.207 1.009 1.122 1.326 1.822.475 1.472.475 2.317c0 .924-.178 1.755-.535 2.494s-.838 1.42-1.445 2.04-1.333 1.194-2.178 1.722-1.756 1.043-2.732 1.545l7.167 7.445c.423-1.03.733-2.159.93-3.386s.324-2.502.377-3.822h4.95v1.98h-3.089c-.237 2.508-.818 4.752-1.742 6.732l5.346 5.584h-2.93zm-7.168-22.453c-1.399 0-2.514.409-3.346 1.227s-1.247 1.822-1.247 3.01v.554c0 .924.29 1.842.87 2.753s1.32 1.854 2.218 2.831c.792-.396 1.551-.812 2.277-1.247s1.36-.905 1.901-1.406.97-1.023 1.287-1.564.475-1.129.475-1.763v-.514c0-.608-.118-1.155-.356-1.644s-.561-.897-.97-1.227-.885-.581-1.426-.753-1.102-.257-1.683-.257zm-7.128 19.523c0 1.584.555 2.838 1.663 3.762s2.574 1.386 4.396 1.386c1.61 0 2.983-.317 4.118-.95s2.073-1.519 2.812-2.654l-8.078-8.395c-.66.343-1.287.7-1.881 1.069s-1.116.792-1.565 1.267-.805 1.023-1.069 1.644-.396 1.353-.396 2.197zM20.671 68.2l-2.495-7.484H7.841L5.425 68.2H.871l9.425-27.64h5.623l9.425 27.64zm-7.563-23.522h-.198l-4 12.196h8.158zm22.73 23.997c-1.954 0-3.59-.343-4.91-1.03s-2.469-1.636-3.446-2.85l2.772-2.535c.766.924 1.617 1.643 2.555 2.158s2.026.772 3.267.772c1.267 0 2.21-.244 2.831-.732s.93-1.168.93-2.04c0-.66-.217-1.22-.653-1.683s-1.194-.759-2.277-.89l-1.9-.238c-2.113-.264-3.77-.878-4.97-1.842s-1.802-2.395-1.802-4.296c0-1.003.185-1.894.554-2.673s.891-1.439 1.564-1.98 1.479-.957 2.416-1.248 1.973-.435 3.109-.435c1.848 0 3.359.29 4.534.871s2.224 1.386 3.148 2.416l-2.653 2.534c-.528-.634-1.221-1.181-2.08-1.643s-1.84-.693-2.95-.693c-1.187 0-2.065.237-2.633.712s-.851 1.096-.851 1.862c0 .792.25 1.386.752 1.782s1.307.686 2.416.87l1.9.238c2.271.344 3.928 1.01 4.97 2s1.565 2.317 1.565 3.98c0 1.003-.192 1.907-.575 2.713s-.93 1.498-1.643 2.079-1.57 1.03-2.574 1.346-2.125.475-3.366.475zm19.562 0c-1.953 0-3.59-.343-4.91-1.03s-2.468-1.636-3.445-2.85l2.772-2.535c.765.924 1.617 1.643 2.554 2.158s2.026.772 3.267.772c1.267 0 2.211-.244 2.831-.732s.931-1.168.931-2.04c0-.66-.218-1.22-.653-1.683s-1.195-.759-2.277-.89l-1.901-.238c-2.112-.264-3.769-.878-4.97-1.842s-1.802-2.395-1.802-4.296c0-1.003.185-1.894.555-2.673s.89-1.439 1.564-1.98 1.478-.957 2.415-1.248 1.974-.435 3.109-.435c1.848 0 3.36.29 4.534.871s2.224 1.386 3.148 2.416l-2.653 2.534c-.528-.634-1.22-1.181-2.079-1.643s-1.841-.693-2.95-.693c-1.188 0-2.066.237-2.633.712s-.852 1.096-.852 1.862c0 .792.251 1.386.753 1.782s1.306.686 2.415.87l1.901.238c2.27.344 3.927 1.01 4.97 2s1.564 2.317 1.564 3.98c0 1.003-.191 1.907-.574 2.713s-.93 1.498-1.644 2.079-1.57 1.03-2.574 1.346-2.125.475-3.366.475zm21.107 0c-1.425 0-2.726-.25-3.9-.752s-2.172-1.221-2.99-2.158-1.452-2.073-1.901-3.406-.673-2.818-.673-4.455.224-3.122.673-4.455 1.082-2.468 1.9-3.406 1.816-1.656 2.99-2.158 2.476-.752 3.901-.752 2.726.25 3.9.752 2.172 1.221 2.99 2.158 1.453 2.073 1.901 3.406.674 2.818.674 4.455-.225 3.122-.674 4.455-1.082 2.468-1.9 3.406-1.815 1.656-2.99 2.158-2.475.752-3.9.752zm0-3.564c1.479 0 2.667-.455 3.564-1.366s1.347-2.277 1.347-4.099v-3.484c0-1.822-.45-3.188-1.347-4.099s-2.085-1.366-3.564-1.366-2.666.455-3.564 1.366-1.346 2.277-1.346 4.099v3.484c0 1.822.449 3.188 1.346 4.099s2.086 1.366 3.564 1.366zm22.216 3.564c-1.479 0-2.799-.25-3.96-.752s-2.139-1.221-2.93-2.158-1.4-2.073-1.822-3.406-.634-2.818-.634-4.455.211-3.122.634-4.455 1.03-2.468 1.821-3.406 1.77-1.656 2.93-2.158 2.482-.752 3.96-.752c2.06 0 3.75.462 5.07 1.386s2.283 2.151 2.89 3.683l-3.564 1.663c-.29-.95-.798-1.71-1.524-2.277s-1.683-.852-2.871-.852c-1.584 0-2.779.495-3.584 1.485s-1.208 2.277-1.208 3.861v3.683c0 1.584.403 2.871 1.208 3.861s2 1.485 3.584 1.485c1.267 0 2.277-.31 3.03-.93s1.352-1.446 1.801-2.475l3.287 1.742c-.687 1.69-1.716 2.983-3.089 3.88s-3.05 1.347-5.03 1.347zm14.414-24.75c-.897 0-1.55-.211-1.96-.633s-.614-.964-.614-1.624v-.673c0-.66.205-1.201.614-1.624s1.063-.633 1.96-.633 1.545.21 1.94.633.595.964.595 1.624v.673c0 .66-.198 1.201-.594 1.624s-1.043.633-1.94.633zm-2.178 3.683h4.317V68.2h-4.317zM136.541 68.2c-1.135 0-2.007-.323-2.614-.97s-.977-1.472-1.109-2.475h-.198c-.396 1.293-1.122 2.27-2.178 2.93s-2.336.99-3.84.99c-2.14 0-3.783-.554-4.931-1.663s-1.723-2.6-1.723-4.475c0-2.059.746-3.603 2.238-4.633s3.676-1.544 6.554-1.544h3.722v-1.743c0-1.267-.343-2.244-1.03-2.93s-1.755-1.03-3.207-1.03c-1.215 0-2.205.264-2.97.792s-1.413 1.201-1.94 2.02l-2.575-2.337c.687-1.161 1.65-2.118 2.891-2.87s2.865-1.13 4.871-1.13c2.666 0 4.712.621 6.138 1.862s2.138 3.023 2.138 5.346v10.336h2.178V68.2zm-8.712-2.812c1.346 0 2.455-.297 3.326-.89s1.307-1.393 1.307-2.396v-2.97h-3.643c-2.983 0-4.475.924-4.475 2.772v.712c0 .924.31 1.617.93 2.08s1.472.692 2.555.692zm21.067 2.812c-1.505 0-2.64-.39-3.406-1.168s-1.148-1.881-1.148-3.307V51.132h-3.208v-3.524h1.743c.713 0 1.208-.158 1.485-.475s.416-.832.416-1.545v-3.603h3.88v5.623h4.317v3.524h-4.317v13.544h4V68.2zm16.83.475c-1.478 0-2.798-.25-3.96-.752s-2.152-1.221-2.97-2.158-1.445-2.073-1.881-3.406-.653-2.818-.653-4.455.217-3.122.653-4.455 1.063-2.468 1.881-3.406 1.808-1.656 2.97-2.158 2.482-.752 3.96-.752c1.505 0 2.831.264 3.98.792s2.105 1.26 2.87 2.198 1.34 2.026 1.723 3.267.575 2.574.575 4v1.623h-14.138v.673c0 1.584.469 2.884 1.406 3.9s2.277 1.525 4.02 1.525c1.267 0 2.336-.277 3.207-.831s1.61-1.307 2.218-2.258l2.534 2.495c-.765 1.267-1.874 2.277-3.326 3.03s-3.142 1.128-5.069 1.128zm0-18.176c-.74 0-1.419.132-2.04.396s-1.148.633-1.583 1.109-.773 1.042-1.01 1.702-.357 1.386-.357 2.178v.278h9.584v-.396c0-1.584-.41-2.858-1.228-3.822s-1.94-1.445-3.366-1.445zm20.473 18.176c-1.953 0-3.59-.343-4.91-1.03s-2.469-1.636-3.445-2.85l2.772-2.535c.765.924 1.617 1.643 2.554 2.158s2.026.772 3.267.772c1.267 0 2.21-.244 2.831-.732s.93-1.168.93-2.04c0-.66-.217-1.22-.653-1.683s-1.194-.759-2.277-.89l-1.9-.238c-2.112-.264-3.769-.878-4.97-1.842s-1.802-2.395-1.802-4.296c0-1.003.185-1.894.554-2.673s.891-1.439 1.565-1.98 1.478-.957 2.415-1.248 1.974-.435 3.109-.435c1.848 0 3.36.29 4.534.871s2.224 1.386 3.148 2.416l-2.653 2.534c-.528-.634-1.221-1.181-2.079-1.643s-1.841-.693-2.95-.693c-1.188 0-2.066.237-2.634.712s-.851 1.096-.851 1.862c0 .792.25 1.386.752 1.782s1.307.686 2.416.87l1.9.238c2.271.344 3.928 1.01 4.97 2s1.565 2.317 1.565 3.98c0 1.003-.192 1.907-.574 2.713s-.931 1.498-1.644 2.079-1.57 1.03-2.574 1.346-2.125.475-3.366.475z" fill="#fff" fill-rule="evenodd"/></svg>