<svg width="67" height="67" xmlns="http://www.w3.org/2000/svg"><path d="M57.249 9.751C63.749 16.252 67 24.168 67 33.5c0 9.227-3.277 17.117-9.83 23.67C50.617 63.723 42.727 67 33.5 67c-9.227 0-17.117-3.277-23.67-9.83C3.277 50.617 0 42.727 0 33.5c0-9.227 3.277-17.117 9.83-23.67C16.383 3.277 24.273 0 33.5 0h3.303v27.68c2.307 1.259 3.46 3.199 3.46 5.82 0 1.782-.682 3.355-2.045 4.718s-2.936 2.045-4.718 2.045-3.355-.682-4.718-2.045-2.045-2.936-2.045-4.718c0-2.621 1.153-4.561 3.46-5.82v-7.077c-2.936.84-5.347 2.412-7.235 4.719-1.887 2.306-2.83 5.032-2.83 8.178 0 3.67 1.31 6.815 3.931 9.437 2.622 2.62 5.767 3.932 9.437 3.932 3.67 0 6.815-1.311 9.437-3.932 2.62-2.622 3.932-5.767 3.932-9.437 0-3.46-1.311-6.606-3.932-9.437l4.718-4.718c3.984 3.984 5.976 8.703 5.976 14.155 0 5.557-1.965 10.302-5.897 14.234-3.932 3.932-8.677 5.897-14.234 5.897s-10.302-1.965-14.234-5.897c-3.932-3.932-5.897-8.677-5.897-14.234 0-4.928 1.599-9.253 4.796-12.975 3.198-3.723 7.209-6.003 12.032-6.842V6.92c-6.605.839-12.189 3.775-16.75 8.808C8.887 20.76 6.606 26.685 6.606 33.5c0 7.34 2.647 13.657 7.942 18.952 5.295 5.295 11.612 7.942 18.952 7.942 7.34 0 13.657-2.647 18.952-7.942 5.295-5.295 7.942-11.612 7.942-18.952 0-7.444-2.62-13.788-7.863-19.03l4.718-4.719z" fill="#FFF" fill-rule="evenodd" opacity=".08"/></svg>