<svg height="53" width="75" xmlns="http://www.w3.org/2000/svg"><path d="M60 32.5H50c-1.302 0-2.46.52-3.477 1.563S45 36.25 45 37.5h20c0-1.302-.52-2.46-1.563-3.477S61.25 32.5 60 32.5zM55.703 0c-6.51 0-10.937.495-13.281 1.484-2.344.99-3.984 1.954-4.922 2.891-.938-.938-2.578-1.901-4.922-2.89C30.234.494 25.808 0 19.297 0 12.787 0 7.943.703 4.766 2.11 1.589 3.515 0 4.843 0 6.093v45.781c1.146-.625 3.294-1.432 6.445-2.422 3.151-.99 6.576-1.64 10.274-1.953 4.479-.365 8.646-.26 12.5.313S35 49.114 35 50c0 .625.182 1.185.547 1.68.364.494.99.768 1.875.82h.156c.886-.052 1.51-.326 1.875-.82A2.76 2.76 0 0 0 40 50c0-.885 1.927-1.615 5.781-2.188s8.021-.677 12.5-.312c3.646.26 7.058.898 10.235 1.914 3.177 1.016 5.338 1.836 6.484 2.461V6.094c0-1.25-1.589-2.578-4.766-3.985C67.057.703 62.214 0 55.704 0zM35 44.688c-1.146-.626-3.06-1.146-5.742-1.563-2.682-.417-5.768-.625-9.258-.625s-6.64.208-9.453.625c-2.813.417-4.662.911-5.547 1.484V10c0-1.25 1.25-2.33 3.75-3.242C11.25 5.846 15 5.39 20 5.39s8.75.455 11.25 1.367C33.75 7.669 35 8.75 35 10v29.609zm35-.079c-.833-.573-2.67-1.067-5.508-1.484-2.838-.417-6.002-.625-9.492-.625s-6.562.208-9.219.625-4.583.938-5.781 1.563V10c0-1.25 1.25-2.33 3.75-3.242C46.25 5.846 50 5.39 55 5.39s8.75.455 11.25 1.367C68.75 7.669 70 8.75 70 10v29.532zM60 22.5H50c-1.302 0-2.46.52-3.477 1.563S45 26.25 45 27.5h20c0-1.302-.52-2.46-1.563-3.477S61.25 22.5 60 22.5zm0-10H50c-1.302 0-2.46.52-3.477 1.563S45 16.25 45 17.5h20c0-1.302-.52-2.46-1.563-3.477S61.25 12.5 60 12.5zm-35 10H15c-1.25 0-2.396.495-3.438 1.484C10.521 24.974 10 26.146 10 27.5h20c0-1.25-.495-2.396-1.484-3.438-.99-1.041-2.162-1.562-3.516-1.562zm0 10H15c-1.25 0-2.396.495-3.438 1.484C10.521 34.974 10 36.146 10 37.5h20c0-1.25-.495-2.396-1.484-3.438-.99-1.041-2.162-1.562-3.516-1.562zm0-20H15c-1.25 0-2.396.495-3.438 1.484C10.521 14.974 10 16.146 10 17.5h20c0-1.25-.495-2.396-1.484-3.438-.99-1.041-2.162-1.562-3.516-1.562z" fill="#0d6697" fill-rule="evenodd"/></svg>