<?xml version="1.0" encoding="UTF-8"?><svg id="Layer_2" xmlns="http://www.w3.org/2000/svg" viewBox="0 0 77.59 39.04"><defs><style>.cls-1{fill:#fff;}</style></defs><g id="Layer_1-2"><g><path class="cls-1" d="M4.22,16.75L0,0H1.54l3.58,14.98h.07L9.14,0h1.75l3.91,14.98h.07L18.58,0h1.49l-4.37,16.75h-1.68L10.01,1.61h-.05l-4.06,15.14h-1.68Z"/><path class="cls-1" d="M31.08,16.75c-.53,0-.91-.14-1.15-.41-.24-.27-.38-.64-.41-1.1v-.43h-.12c-.27,.69-.72,1.23-1.34,1.63-.62,.4-1.42,.6-2.38,.6-1.3,0-2.3-.32-3-.95s-1.06-1.53-1.06-2.69c0-1.09,.39-1.96,1.16-2.6,.78-.64,2.05-.96,3.83-.96h2.83v-1.44c0-2.03-1.05-3.05-3.14-3.05-.82,0-1.5,.17-2.04,.52s-.98,.84-1.32,1.48l-.86-.71c.34-.71,.85-1.3,1.55-1.76s1.6-.69,2.72-.69c1.44,0,2.54,.36,3.31,1.08,.77,.72,1.15,1.73,1.15,3.03v7.29h1.66v1.18h-1.39Zm-5.21-.89c.5,0,.96-.06,1.39-.19,.43-.13,.81-.31,1.14-.54,.33-.23,.58-.51,.77-.84,.18-.33,.28-.7,.28-1.12v-2.29h-2.88c-1.23,0-2.12,.2-2.68,.59-.55,.39-.83,.94-.83,1.63v.58c0,.72,.26,1.27,.77,1.64,.51,.37,1.19,.55,2.04,.55Z"/><path class="cls-1" d="M35.28,16.75V4.46h1.37v2.21h.1c.24-.58,.65-1.09,1.22-1.54,.58-.45,1.39-.67,2.45-.67h.82v1.34h-1.08c-1.02,0-1.86,.22-2.52,.67-.66,.45-.98,1.07-.98,1.87v8.4h-1.37Z"/><path class="cls-1" d="M43.85,16.75V4.46h1.37v2.21h.1c.24-.58,.65-1.09,1.22-1.54,.58-.45,1.39-.67,2.45-.67h.82v1.34h-1.08c-1.02,0-1.86,.22-2.52,.67-.66,.45-.98,1.07-.98,1.87v8.4h-1.37Z"/><path class="cls-1" d="M56.74,17.04c-.82,0-1.56-.14-2.22-.43s-1.23-.71-1.7-1.26c-.47-.55-.83-1.23-1.08-2.03-.25-.8-.37-1.7-.37-2.71s.12-1.91,.37-2.7c.25-.79,.61-1.46,1.08-2.02,.47-.55,1.04-.98,1.69-1.27,.66-.3,1.39-.44,2.21-.44s1.5,.15,2.14,.45c.64,.3,1.18,.71,1.63,1.24,.45,.53,.8,1.17,1.04,1.92,.25,.75,.37,1.57,.37,2.47v.65h-9.1v.6c0,.64,.09,1.23,.28,1.76,.18,.54,.45,1,.79,1.38,.34,.38,.76,.68,1.26,.9,.5,.22,1.06,.32,1.68,.32,1.79,0,3.03-.82,3.72-2.47l1.01,.67c-.38,.91-.99,1.63-1.81,2.17-.82,.54-1.82,.81-2.99,.81Zm-.02-11.69c-.59,0-1.13,.11-1.61,.32-.48,.22-.89,.52-1.24,.9-.34,.38-.61,.84-.79,1.38s-.28,1.12-.28,1.76v.12h7.61v-.19c0-.64-.09-1.23-.26-1.76-.18-.54-.43-.99-.76-1.36-.33-.37-.72-.66-1.18-.86s-.96-.31-1.5-.31Z"/><path class="cls-1" d="M65.38,16.75V4.46h1.37v1.94h.07c.27-.64,.7-1.17,1.27-1.6,.58-.42,1.36-.64,2.35-.64,1.31,0,2.33,.4,3.06,1.21s1.09,1.96,1.09,3.47v7.9h-1.37v-7.66c0-1.25-.27-2.18-.8-2.78-.54-.61-1.32-.91-2.34-.91-.43,0-.85,.06-1.25,.17-.4,.11-.76,.28-1.07,.5-.31,.22-.56,.51-.74,.85-.18,.34-.28,.74-.28,1.19v8.64h-1.37Z"/><path class="cls-1" d="M1.49,38.75V22H11.95v2.4H4.2v4.66h6.89v2.4H4.2v7.3H1.49Z"/><path class="cls-1" d="M19.2,39.04c-.86,0-1.65-.15-2.36-.46s-1.32-.74-1.81-1.31c-.5-.57-.88-1.26-1.15-2.06-.27-.81-.41-1.71-.41-2.7s.14-1.89,.41-2.7c.27-.81,.66-1.5,1.15-2.06s1.1-1,1.81-1.31c.71-.3,1.5-.46,2.36-.46s1.65,.15,2.36,.46c.71,.3,1.32,.74,1.81,1.31s.88,1.26,1.15,2.06c.27,.81,.41,1.71,.41,2.7s-.14,1.89-.41,2.7c-.27,.81-.66,1.5-1.15,2.06-.5,.57-1.1,1-1.81,1.31s-1.5,.46-2.36,.46Zm0-2.18c.9,0,1.62-.27,2.16-.82,.54-.55,.82-1.37,.82-2.47v-2.1c0-1.1-.27-1.92-.82-2.47-.54-.55-1.26-.82-2.16-.82s-1.62,.27-2.16,.82c-.54,.55-.82,1.37-.82,2.47v2.1c0,1.1,.27,1.92,.82,2.47,.54,.55,1.26,.82,2.16,.82Z"/><path class="cls-1" d="M27.84,38.75v-12.48h2.62v2.4h.12c.18-.64,.54-1.2,1.1-1.68,.56-.48,1.34-.72,2.33-.72h.7v2.52h-1.03c-1.04,0-1.84,.17-2.39,.5-.55,.34-.83,.83-.83,1.49v7.97h-2.62Z"/><path class="cls-1" d="M40.99,39.04c-1.18,0-2.18-.21-2.98-.62-.8-.42-1.5-.99-2.09-1.73l1.68-1.54c.46,.56,.98,1,1.55,1.31,.57,.31,1.23,.47,1.98,.47s1.34-.15,1.72-.44c.38-.3,.56-.71,.56-1.24,0-.4-.13-.74-.4-1.02-.26-.28-.72-.46-1.38-.54l-1.15-.14c-1.28-.16-2.28-.53-3.01-1.12-.73-.58-1.09-1.45-1.09-2.6,0-.61,.11-1.15,.34-1.62,.22-.47,.54-.87,.95-1.2,.41-.33,.9-.58,1.46-.76,.57-.18,1.2-.26,1.88-.26,1.12,0,2.04,.18,2.75,.53,.71,.35,1.35,.84,1.91,1.46l-1.61,1.54c-.32-.38-.74-.72-1.26-1-.52-.28-1.12-.42-1.79-.42-.72,0-1.25,.14-1.6,.43s-.52,.66-.52,1.13,.15,.84,.46,1.08c.3,.24,.79,.42,1.46,.53l1.15,.14c1.38,.21,2.38,.61,3.01,1.21,.63,.6,.95,1.4,.95,2.41,0,.61-.12,1.16-.35,1.64-.23,.49-.56,.91-1,1.26-.43,.35-.95,.62-1.56,.82-.61,.19-1.29,.29-2.04,.29Z"/><path class="cls-1" d="M52.18,38.75c-.91,0-1.6-.24-2.06-.71-.46-.47-.7-1.14-.7-2v-7.63h-1.94v-2.14h1.06c.43,0,.73-.1,.9-.29s.25-.5,.25-.94v-2.18h2.35v3.41h2.62v2.14h-2.62v8.21h2.42v2.14h-2.28Z"/><path class="cls-1" d="M62.28,39.04c-.9,0-1.7-.15-2.4-.46-.7-.3-1.3-.74-1.8-1.31-.5-.57-.88-1.26-1.14-2.06-.26-.81-.4-1.71-.4-2.7s.13-1.89,.4-2.7c.26-.81,.64-1.5,1.14-2.06s1.1-1,1.8-1.31c.7-.3,1.5-.46,2.4-.46s1.72,.16,2.41,.48c.7,.32,1.28,.76,1.74,1.33,.46,.57,.81,1.23,1.04,1.98,.23,.75,.35,1.56,.35,2.42v.98h-8.57v.41c0,.95,.28,1.74,.85,2.35,.57,.61,1.38,.92,2.44,.92,.77,0,1.42-.17,1.94-.5,.53-.33,.98-.79,1.34-1.36l1.54,1.52c-.46,.77-1.14,1.38-2.02,1.84-.88,.46-1.9,.69-3.07,.69Zm0-11.02c-.45,0-.86,.08-1.24,.24-.38,.16-.7,.38-.96,.67-.26,.29-.47,.63-.61,1.03-.14,.4-.22,.84-.22,1.32v.17h5.81v-.24c0-.96-.25-1.73-.74-2.32-.5-.58-1.18-.88-2.04-.88Z"/><path class="cls-1" d="M70.73,38.75v-12.48h2.62v2.4h.12c.18-.64,.54-1.2,1.1-1.68,.56-.48,1.34-.72,2.33-.72h.7v2.52h-1.03c-1.04,0-1.84,.17-2.39,.5-.55,.34-.83,.83-.83,1.49v7.97h-2.62Z"/></g></g></svg>