<?xml version="1.0" encoding="utf-8"?>
<!-- Generator: Adobe Illustrator 26.4.0, SVG Export Plug-In . SVG Version: 6.00 Build 0)  -->
<svg version="1.1" id="Layer_1" focusable="false" xmlns="http://www.w3.org/2000/svg" xmlns:xlink="http://www.w3.org/1999/xlink"
	 x="0px" y="0px" viewBox="0 0 384 512" style="enable-background:new 0 0 384 512;" xml:space="preserve">
<style type="text/css">
	.st0{fill:#0D6697;}
</style>
<path class="st0" d="M369.9,97.9L286,14c-9-9-21.2-14.1-33.9-14.1H48C21.5,0,0,21.5,0,48v416c0,26.5,21.5,48,48,48h288
	c26.5,0,48-21.5,48-48V131.9C384,119.2,378.9,106.9,369.9,97.9z M347.3,120.6c2.1,2.1,3.5,4.6,4.2,7.4H256V32.5
	c2.8,0.7,5.3,2.1,7.4,4.2L347.3,120.6z M336,480H48c-8.8,0-16-7.2-16-16V48c0-8.8,7.2-16,16-16h176v104c0,13.3,10.7,24,24,24h104
	v304C352,472.8,344.8,480,336,480z M282.4,233.5c-6.8,32.8-32.5,139.7-33.4,150.3c-5.8-29.1-0.7,1.6-41.8-150.9
	c-1.4-5.2-6.2-8.9-11.6-8.9h-6.4c-5.4,0-10.2,3.6-11.6,8.9c-38.3,142.3-37.4,140.6-39.4,154.7c-4.1-23.9,2.1-2.9-34.4-154.4
	c-1.3-5.4-6.1-9.2-11.7-9.2h-7.2c-7.8,0-13.5,7.3-11.6,14.9c9.5,38,34.5,137.4,42.2,168c1.3,5.3,6.1,9.1,11.6,9.1h17
	c5.4,0,10.2-3.7,11.6-8.9c34.2-127.7,33.5-123.4,36.7-142.9c6.5,31.1,0.2,7,36.7,142.9c1.4,5.2,6.2,8.9,11.6,8.9h14
	c5.5,0,13.7-3.7,15.1-9l42.8-168c1.9-7.6-3.8-15-11.6-15h-6.8C288.5,224,283.6,228,282.4,233.5L282.4,233.5z"/>
</svg>
