<svg height="47" width="130" xmlns="http://www.w3.org/2000/svg"><path d="M2.27 19.4V.973h11.51v2.64H5.255v5.121h7.576v2.64H5.254V19.4zm20.223.317c-.95 0-1.817-.167-2.6-.502s-1.448-.814-1.994-1.439-.968-1.381-1.267-2.27-.449-1.879-.449-2.97.15-2.081.449-2.97.722-1.646 1.267-2.27 1.21-1.105 1.993-1.44 1.65-.5 2.6-.5 1.818.166 2.601.5 1.448.815 1.993 1.44.968 1.381 1.268 2.27.448 1.879.448 2.97-.15 2.081-.448 2.97-.722 1.646-1.268 2.27-1.21 1.105-1.993 1.44-1.65.5-2.6.5zm0-2.376c.985 0 1.777-.304 2.376-.911s.897-1.518.897-2.732v-2.324c0-1.214-.299-2.125-.897-2.732s-1.39-.91-2.376-.91-1.778.303-2.376.91-.898 1.518-.898 2.732v2.324c0 1.214.3 2.125.898 2.732s1.39.91 2.376.91zm9.504 2.059V5.672h2.877v2.64h.132c.194-.704.599-1.32 1.215-1.848s1.47-.792 2.56-.792h.766v2.772h-1.135c-1.144 0-2.02.185-2.627.554s-.91.916-.91 1.637V19.4zm14.467.317c-1.302 0-2.394-.229-3.274-.687s-1.645-1.09-2.296-1.9l1.848-1.69c.51.616 1.078 1.096 1.702 1.439s1.351.515 2.178.515c.845 0 1.474-.163 1.888-.489s.62-.779.62-1.36c0-.44-.145-.813-.435-1.121s-.797-.506-1.518-.594l-1.267-.159c-1.408-.176-2.513-.585-3.314-1.227s-1.2-1.598-1.2-2.865c0-.669.122-1.263.369-1.782s.594-.959 1.043-1.32.985-.638 1.61-.831 1.316-.29 2.072-.29c1.232 0 2.24.193 3.023.58s1.483.924 2.099 1.61l-1.769 1.69c-.352-.422-.814-.788-1.386-1.096s-1.227-.462-1.967-.462c-.792 0-1.377.159-1.755.476s-.568.73-.568 1.24c0 .528.167.924.502 1.188s.871.458 1.61.581l1.267.159c1.514.228 2.618.673 3.314 1.333s1.042 1.544 1.042 2.653c0 .669-.127 1.272-.382 1.808s-.62 1-1.096 1.386-1.047.687-1.716.898-1.417.317-2.244.317zm12.487-.317c-1.003 0-1.76-.26-2.27-.779s-.766-1.254-.766-2.204V8.022h-2.138v-2.35h1.161c.476 0 .806-.106.99-.317s.278-.554.278-1.03V1.924h2.587v3.749h2.877v2.35h-2.877v9.028h2.666v2.35zm11.22.317c-.985 0-1.865-.167-2.64-.502s-1.434-.814-1.98-1.439-.963-1.381-1.254-2.27-.435-1.879-.435-2.97.145-2.081.435-2.97.709-1.646 1.254-2.27 1.206-1.105 1.98-1.44 1.655-.5 2.64-.5c1.003 0 1.888.175 2.653.527s1.404.84 1.914 1.465.894 1.351 1.149 2.178.383 1.716.383 2.667v1.082h-9.425v.449c0 1.056.312 1.923.937 2.6s1.518 1.017 2.68 1.017c.844 0 1.557-.185 2.138-.555s1.074-.87 1.478-1.504l1.69 1.663c-.51.845-1.25 1.518-2.218 2.02s-2.094.752-3.379.752zm0-12.118c-.493 0-.946.088-1.36.264s-.765.423-1.055.74-.515.695-.674 1.135-.237.924-.237 1.452v.184h6.389v-.264c0-1.056-.273-1.905-.819-2.547s-1.293-.964-2.244-.964zM79.464 19.4V5.672h2.878v2.64h.132c.193-.704.598-1.32 1.214-1.848s1.47-.792 2.56-.792h.766v2.772H85.88c-1.144 0-2.02.185-2.627.554s-.91.916-.91 1.637V19.4zm27.271-2.508c-.229.334-.51.669-.845 1.003s-.734.638-1.2.911-.995.493-1.585.66-1.245.25-1.967.25c-.88 0-1.658-.122-2.336-.369s-1.254-.59-1.73-1.03-.835-.963-1.082-1.57-.37-1.263-.37-1.967.115-1.324.344-1.861.528-1.012.898-1.426.796-.783 1.28-1.109.99-.62 1.518-.884c-.704-.774-1.258-1.514-1.663-2.218s-.607-1.478-.607-2.323c0-.616.11-1.188.33-1.716s.532-.981.937-1.36.893-.677 1.465-.897 1.21-.33 1.914-.33c.651 0 1.245.097 1.782.29s.994.462 1.373.806.673.748.884 1.214.317.981.317 1.544c0 .616-.119 1.17-.356 1.664s-.56.946-.964 1.36-.889.796-1.452 1.148-1.17.695-1.822 1.03l4.779 4.962c.281-.686.488-1.438.62-2.257s.216-1.667.251-2.547h3.3v1.32h-2.06c-.158 1.672-.545 3.168-1.16 4.488l3.563 3.722h-1.953zm-4.778-14.969c-.933 0-1.677.273-2.231.819s-.832 1.214-.832 2.006v.37c0 .616.194 1.227.581 1.834s.88 1.237 1.479 1.888c.528-.264 1.034-.541 1.518-.832s.906-.602 1.267-.937.647-.682.858-1.043.317-.752.317-1.174V4.51c0-.404-.08-.77-.238-1.095s-.374-.599-.647-.819-.59-.387-.95-.501-.735-.172-1.122-.172zm-4.752 13.015c0 1.056.37 1.892 1.109 2.508s1.716.924 2.93.924c1.074 0 1.989-.21 2.746-.633s1.381-1.012 1.874-1.769l-5.386-5.597c-.44.229-.858.467-1.254.713s-.743.528-1.042.845-.537.682-.713 1.095-.264.902-.264 1.466zM13.78 45.8l-1.663-4.99h-6.89L3.616 45.8H.58l6.283-18.427h3.749L16.896 45.8zM8.738 30.118h-.132L5.94 38.25h5.438zm15.154 15.999c-1.302 0-2.394-.229-3.274-.687s-1.645-1.09-2.296-1.9l1.848-1.69c.51.616 1.078 1.096 1.702 1.439s1.351.515 2.178.515c.845 0 1.474-.163 1.888-.489s.62-.779.62-1.36c0-.44-.145-.813-.435-1.121s-.797-.506-1.518-.594l-1.267-.159c-1.408-.176-2.513-.585-3.314-1.227s-1.2-1.598-1.2-2.865c0-.669.122-1.263.369-1.782s.594-.959 1.043-1.32.985-.638 1.61-.831 1.316-.29 2.072-.29c1.232 0 2.24.193 3.023.58s1.483.924 2.099 1.61l-1.769 1.69c-.352-.422-.814-.788-1.386-1.096s-1.227-.462-1.967-.462c-.792 0-1.377.159-1.755.476s-.568.73-.568 1.24c0 .528.167.924.502 1.188s.871.458 1.61.581l1.267.159c1.514.228 2.618.673 3.314 1.333s1.042 1.544 1.042 2.653c0 .669-.127 1.272-.382 1.808s-.62 1-1.096 1.386-1.047.687-1.716.898-1.417.317-2.244.317zm13.042 0c-1.303 0-2.394-.229-3.274-.687s-1.646-1.09-2.297-1.9l1.848-1.69c.51.616 1.078 1.096 1.703 1.439s1.35.515 2.178.515c.845 0 1.474-.163 1.888-.489s.62-.779.62-1.36c0-.44-.145-.813-.436-1.121s-.796-.506-1.518-.594l-1.267-.159c-1.408-.176-2.512-.585-3.313-1.227s-1.201-1.598-1.201-2.865c0-.669.123-1.263.37-1.782s.593-.959 1.042-1.32.986-.638 1.61-.831 1.316-.29 2.073-.29c1.232 0 2.24.193 3.023.58s1.483.924 2.099 1.61l-1.77 1.69c-.351-.422-.813-.788-1.385-1.096s-1.228-.462-1.967-.462c-.792 0-1.377.159-1.756.476s-.567.73-.567 1.24c0 .528.167.924.501 1.188s.872.458 1.61.581l1.268.159c1.514.228 2.618.673 3.313 1.333s1.043 1.544 1.043 2.653c0 .669-.128 1.272-.383 1.808s-.62 1-1.095 1.386-1.048.687-1.716.898-1.417.317-2.244.317zm14.07 0c-.95 0-1.816-.167-2.6-.502s-1.447-.814-1.993-1.439-.968-1.381-1.267-2.27-.449-1.879-.449-2.97.15-2.081.449-2.97.722-1.646 1.267-2.27 1.21-1.105 1.993-1.44 1.65-.5 2.6-.5 1.818.166 2.601.5 1.448.815 1.993 1.44.968 1.381 1.268 2.27.448 1.879.448 2.97-.15 2.081-.448 2.97-.722 1.646-1.268 2.27-1.21 1.105-1.993 1.44-1.65.5-2.6.5zm0-2.376c.986 0 1.778-.304 2.377-.911s.897-1.518.897-2.732v-2.324c0-1.214-.299-2.125-.897-2.732s-1.39-.91-2.376-.91-1.778.303-2.376.91-.898 1.518-.898 2.732v2.324c0 1.214.3 2.125.898 2.732s1.39.91 2.376.91zm14.811 2.376c-.985 0-1.865-.167-2.64-.502s-1.425-.814-1.953-1.439-.933-1.381-1.215-2.27-.422-1.879-.422-2.97.14-2.081.422-2.97.687-1.646 1.215-2.27 1.179-1.105 1.953-1.44 1.655-.5 2.64-.5c1.373 0 2.5.307 3.38.923s1.522 1.435 1.927 2.455l-2.376 1.11c-.194-.634-.533-1.14-1.017-1.519s-1.122-.567-1.914-.567c-1.056 0-1.852.33-2.389.99s-.805 1.518-.805 2.574v2.455c0 1.056.268 1.914.805 2.574s1.333.99 2.39.99c.844 0 1.517-.207 2.019-.62s.902-.964 1.201-1.65l2.191 1.161c-.457 1.126-1.144 1.989-2.059 2.587s-2.033.898-3.353.898zm9.61-16.5c-.599 0-1.034-.141-1.307-.423s-.41-.642-.41-1.082v-.449c0-.44.137-.8.41-1.082s.708-.423 1.307-.423 1.03.141 1.293.423.396.642.396 1.082v.449c0 .44-.132.8-.396 1.082s-.695.423-1.293.423zm-1.452 2.455h2.877V45.8h-2.877zM91.027 45.8c-.757 0-1.337-.216-1.742-.647s-.651-.981-.74-1.65h-.131c-.264.863-.748 1.514-1.452 1.954s-1.558.66-2.561.66c-1.426 0-2.521-.37-3.287-1.109s-1.148-1.734-1.148-2.983c0-1.373.497-2.403 1.491-3.089s2.451-1.03 4.37-1.03h2.481v-1.161c0-.845-.229-1.496-.686-1.954s-1.17-.686-2.139-.686c-.81 0-1.47.176-1.98.528s-.941.8-1.293 1.346l-1.716-1.557c.457-.775 1.1-1.413 1.927-1.914s1.91-.753 3.247-.753c1.778 0 3.142.414 4.092 1.241s1.426 2.015 1.426 3.564v6.89h1.452v2.35zm-5.808-1.874c.898 0 1.637-.198 2.218-.594s.871-.929.871-1.598v-1.98h-2.429c-1.989 0-2.983.616-2.983 1.848v.476c0 .616.207 1.078.62 1.386s.982.462 1.703.462zM99.264 45.8c-1.003 0-1.76-.26-2.27-.779s-.766-1.254-.766-2.204v-8.395H94.09v-2.35h1.161c.475 0 .805-.106.99-.317s.277-.554.277-1.03v-2.402h2.588v3.749h2.877v2.35h-2.877v9.028h2.666v2.35zm11.22.317c-.986 0-1.866-.167-2.64-.502s-1.434-.814-1.98-1.439-.964-1.381-1.254-2.27-.436-1.879-.436-2.97.146-2.081.436-2.97.708-1.646 1.254-2.27 1.206-1.105 1.98-1.44 1.654-.5 2.64-.5c1.003 0 1.888.175 2.653.527s1.404.84 1.914 1.465.893 1.351 1.149 2.178.382 1.716.382 2.667v1.082h-9.424v.449c0 1.056.312 1.923.937 2.6s1.518 1.017 2.68 1.017c.844 0 1.557-.185 2.138-.555s1.073-.87 1.478-1.504l1.69 1.663c-.51.845-1.25 1.518-2.218 2.02s-2.094.752-3.379.752zm0-12.118c-.493 0-.946.088-1.36.264s-.765.423-1.056.74-.514.695-.673 1.135-.237.924-.237 1.452v.184h6.388v-.264c0-1.056-.272-1.905-.818-2.547s-1.294-.964-2.244-.964zm13.649 12.118c-1.303 0-2.394-.229-3.274-.687s-1.645-1.09-2.297-1.9l1.848-1.69c.51.616 1.078 1.096 1.703 1.439s1.351.515 2.178.515c.845 0 1.474-.163 1.888-.489s.62-.779.62-1.36c0-.44-.145-.813-.435-1.121s-.797-.506-1.518-.594l-1.268-.159c-1.408-.176-2.512-.585-3.313-1.227s-1.201-1.598-1.201-2.865c0-.669.123-1.263.37-1.782s.594-.959 1.042-1.32.986-.638 1.61-.831 1.316-.29 2.073-.29c1.232 0 2.24.193 3.023.58s1.483.924 2.099 1.61l-1.769 1.69c-.352-.422-.814-.788-1.386-1.096s-1.228-.462-1.967-.462c-.792 0-1.377.159-1.755.476s-.568.73-.568 1.24c0 .528.167.924.502 1.188s.87.458 1.61.581l1.267.159c1.514.228 2.618.673 3.313 1.333s1.043 1.544 1.043 2.653c0 .669-.127 1.272-.383 1.808s-.62 1-1.095 1.386-1.047.687-1.716.898-1.417.317-2.244.317z" fill="#005e91" fill-rule="evenodd"/></svg>