<svg width="70" height="80" xmlns="http://www.w3.org/2000/svg"><path d="M60 30H10c-2.76 0-5.117.977-7.07 2.93C.977 34.883 0 37.24 0 40v5c0 1.823.456 3.503 1.367 5.04C2.28 51.575 3.49 52.76 5 53.593V70h20v10h20V70h20V53.594c1.51-.834 2.721-2.018 3.633-3.555C69.544 48.503 70 46.823 70 45v-5c0-2.76-.977-5.117-2.93-7.07C65.117 30.977 62.76 30 60 30zM20 65H10V45H5v-5c0-1.354.495-2.526 1.484-3.516C7.474 35.494 8.646 35 10 35h6.406c-.468.73-.82 1.51-1.054 2.344A9.77 9.77 0 0 0 15 40v10c0 1.823.456 3.503 1.367 5.04.912 1.536 2.123 2.72 3.633 3.554V65zm25-10V45h-5v30H30V45h-5v10c-1.354 0-2.526-.482-3.516-1.445C20.494 52.59 20 51.406 20 50V40c0-1.354.495-2.526 1.484-3.516C22.474 35.494 23.646 35 25 35h20c1.406 0 2.591.495 3.555 1.484C49.518 37.474 50 38.646 50 40v10c0 1.406-.482 2.591-1.445 3.555C47.59 54.518 46.406 55 45 55zm20-10h-5v20H50v-6.406c1.51-.834 2.721-2.018 3.633-3.555C54.544 53.503 55 51.823 55 50V40a9.77 9.77 0 0 0-.352-2.656A8.633 8.633 0 0 0 53.594 35H60c1.406 0 2.591.495 3.555 1.484C64.518 37.474 65 38.646 65 40v5zM23.75 24.766c1.354 1.614 3.008 2.89 4.96 3.828C30.665 29.53 32.76 30 35 30s4.336-.469 6.29-1.406c1.952-.938 3.606-2.214 4.96-3.828a10.55 10.55 0 0 0 3.633 3.789C51.419 29.518 53.125 30 55 30c2.76 0 5.117-.977 7.07-2.93C64.023 25.117 65 22.76 65 20c0-2.76-.977-5.117-2.93-7.07C60.117 10.977 57.76 10 55 10c-.99 0-1.94.143-2.852.43a9.907 9.907 0 0 0-2.539 1.21c-.78-3.333-2.526-6.106-5.234-8.32C41.667 1.107 38.542 0 35 0s-6.667 1.107-9.375 3.32c-2.708 2.214-4.453 4.987-5.234 8.32a9.907 9.907 0 0 0-2.54-1.21A9.454 9.454 0 0 0 15 10c-2.76 0-5.117.977-7.07 2.93C5.977 14.883 5 17.24 5 20c0 2.76.977 5.117 2.93 7.07C9.883 29.023 12.24 30 15 30c1.875 0 3.58-.482 5.117-1.445a10.55 10.55 0 0 0 3.633-3.79zM55 15c1.406 0 2.591.482 3.555 1.445C59.518 17.41 60 18.594 60 20c0 1.406-.482 2.591-1.445 3.555C57.59 24.518 56.406 25 55 25c-1.354 0-2.526-.482-3.516-1.445C50.494 22.59 50 21.406 50 20c0-1.406.495-2.591 1.484-3.555C52.474 15.482 53.646 15 55 15zM35 5c2.76 0 5.117.977 7.07 2.93C44.023 9.883 45 12.24 45 15c0 2.76-.977 5.117-2.93 7.07C40.117 24.023 37.76 25 35 25c-2.76 0-5.117-.977-7.07-2.93C25.977 20.117 25 17.76 25 15c0-2.76.977-5.117 2.93-7.07C29.883 5.977 32.24 5 35 5zM15 25c-1.354 0-2.526-.482-3.516-1.445C10.494 22.59 10 21.406 10 20c0-1.406.495-2.591 1.484-3.555C12.474 15.482 13.646 15 15 15c1.406 0 2.591.482 3.555 1.445C19.518 17.41 20 18.594 20 20c0 1.406-.482 2.591-1.445 3.555C17.59 24.518 16.406 25 15 25z" fill="#FFF" fill-rule="evenodd" opacity=".08"/></svg>