<svg width="142" height="142" xmlns="http://www.w3.org/2000/svg"><path d="M140.183 66.388L75.542 1.815C74.33.605 72.817 0 71 0c-1.817 0-3.33.605-4.542 1.815L1.817 66.388C.606 67.698 0 69.236 0 71c0 1.764.606 3.251 1.817 4.461l64.641 64.573C67.67 141.344 69.183 142 71 142c1.817 0 3.33-.655 4.542-1.966l64.641-64.573C141.394 74.251 142 72.764 142 71c0-1.764-.606-3.302-1.817-4.612zM83.868 87.105v-16.18H51.623V90.28H38.755V64.573c0-1.815.63-3.352 1.892-4.612 1.262-1.26 2.75-1.89 4.466-1.89h38.755V41.888l22.708 22.684-22.708 22.532z" fill="#FFF" fill-rule="evenodd" opacity=".08"/></svg>