<svg height="75" width="80" xmlns="http://www.w3.org/2000/svg"><path d="M65 0c-2.552 0-4.714.52-6.484 1.563-1.823 1.093-4.44 2.265-7.852 3.515-3.411 1.25-8.216 2.396-14.414 3.438C30.104 9.557 21.354 10.052 10 10c-1.354 0-2.656.52-3.906 1.563-1.198 1.041-2.253 2.473-3.164 4.296-.912 1.823-1.628 3.933-2.149 6.329C.261 24.634 0 27.24 0 30s.26 5.365.781 7.813c.521 2.395 1.237 4.505 2.149 6.328.911 1.823 1.966 3.255 3.164 4.296C7.344 49.48 8.646 50 10 50c.885 0 1.732.013 2.54.04.806.025 1.627.038 2.46.038L20 72.5 35 75l5-7.5-3.516-15.86c9.48 1.407 15.638 3.152 18.477 5.235C57.799 58.958 61.146 60 65 60c2.083 0 4.036-.781 5.86-2.344 1.822-1.562 3.41-3.71 4.765-6.445s2.422-5.925 3.203-9.57C79.61 38.047 80 34.167 80 30s-.39-8.047-1.172-11.64c-.781-3.646-1.849-6.837-3.203-9.57s-2.943-4.884-4.766-6.446C69.036.78 67.083 0 65 0zM15.39 35.234a261.18 261.18 0 0 0-4.804-.117A370.832 370.832 0 0 1 5.39 35a47.03 47.03 0 0 1-.274-2.383A28.894 28.894 0 0 1 5 30c0-3.438.495-6.797 1.484-10.078C7.474 16.64 8.646 15 10 15c1.51 0 2.969-.013 4.375-.04s2.786-.038 4.14-.038c-1.093 1.823-1.953 4.036-2.578 6.64S15 26.98 15 30c0 .885.04 1.77.117 2.656.078.886.17 1.745.274 2.578zm5 .235a85.738 85.738 0 0 1-.273-2.696A32.462 32.462 0 0 1 20 30c0-3.125.339-6.003 1.016-8.633.677-2.63 1.562-4.857 2.656-6.68 6.042-.312 11.055-.833 15.039-1.562 3.984-.73 7.279-1.51 9.883-2.344-1.094 2.604-1.966 5.534-2.617 8.79C45.326 22.825 45 26.301 45 30c0 1.563.065 3.086.195 4.57s.3 2.93.508 4.336c-2.812-.729-6.25-1.406-10.312-2.031-4.063-.625-9.063-1.094-15-1.406zM65 52.5c-.469 0-.924-.091-1.367-.273a13.075 13.075 0 0 1-1.367-.664c-.313-1.303-.73-3.777-1.25-7.422-.573-3.646-.743-7.526-.508-11.641a35.731 35.731 0 0 1 2.695-11.797c1.563-3.698 4.323-6.276 8.281-7.734 1.042 2.031 1.888 4.518 2.54 7.46.65 2.943.976 6.133.976 9.571 0 3.125-.26 6.042-.781 8.75-.521 2.76-1.237 5.156-2.149 7.188-.911 2.03-1.966 3.62-3.164 4.765C67.656 51.901 66.354 52.5 65 52.5z" fill="#0d6697" fill-rule="evenodd"/></svg>