<?xml version="1.0" encoding="UTF-8"?>
<svg width="78px" height="80px" viewBox="0 0 78 80" version="1.1" xmlns="http://www.w3.org/2000/svg" xmlns:xlink="http://www.w3.org/1999/xlink">
    <!-- Generator: Sketch 52.2 (67145) - http://www.bohemiancoding.com/sketch -->
    <title>Fill 1</title>
    <desc>Created with Sketch.</desc>
    <g id="Forster-&amp;-Associates-Concept-Three" stroke="none" stroke-width="1" fill="none" fill-rule="evenodd">
        <g id="Homepage-Concept-Copy" transform="translate(-1228.000000, -898.000000)" fill="#0D6697">
            <path d="M1259.25,930.5 C1260.29167,930.5 1261.17708,930.13542 1261.90625,929.40625 C1262.63542,928.67708 1263,927.79167 1263,926.75 C1263,925.70833 1262.63542,924.82292 1261.90625,924.09375 C1261.17708,923.36458 1260.29167,923 1259.25,923 C1258.20833,923 1257.32292,923.36458 1256.59375,924.09375 C1255.86458,924.82292 1255.5,925.70833 1255.5,926.75 C1255.5,927.79167 1255.86458,928.67708 1256.59375,929.40625 C1257.32292,930.13542 1258.20833,930.5 1259.25,930.5 Z M1244.25,930.5 C1245.29167,930.5 1246.17708,930.13542 1246.90625,929.40625 C1247.63542,928.67708 1248,927.79167 1248,926.75 C1248,925.70833 1247.63542,924.82292 1246.90625,924.09375 C1246.17708,923.36458 1245.29167,923 1244.25,923 C1243.20833,923 1242.32292,923.36458 1241.59375,924.09375 C1240.86458,924.82292 1240.5,925.70833 1240.5,926.75 C1240.5,927.79167 1240.86458,928.67708 1241.59375,929.40625 C1242.32292,930.13542 1243.20833,930.5 1244.25,930.5 Z M1274.25,930.5 C1275.29167,930.5 1276.17708,930.13542 1276.90625,929.40625 C1277.63542,928.67708 1278,927.79167 1278,926.75 C1278,925.70833 1277.63542,924.82292 1276.90625,924.09375 C1276.17708,923.36458 1275.29167,923 1274.25,923 C1273.20833,923 1272.32292,923.36458 1271.59375,924.09375 C1270.86458,924.82292 1270.5,925.70833 1270.5,926.75 C1270.5,927.79167 1270.86458,928.67708 1271.59375,929.40625 C1272.32292,930.13542 1273.20833,930.5 1274.25,930.5 Z M1252.0625,954.875 C1253.05209,955.03125 1254.4453,955.17448 1256.24219,955.30469 C1258.03907,955.4349 1259.45833,955.5 1260.5,955.5 C1264.97919,955.5 1269.06769,954.71876 1272.76562,953.15625 C1276.46356,951.59374 1279.62759,949.48439 1282.25781,946.82812 C1284.88803,944.17186 1286.91926,941.08596 1288.35156,937.57031 C1289.78386,934.05467 1290.5,930.34377 1290.5,926.4375 C1290.5,922.53123 1289.64063,918.84637 1287.92188,915.38281 C1286.20312,911.91925 1283.93751,908.89845 1281.125,906.32031 C1278.31249,903.74217 1275.10939,901.71094 1271.51562,900.22656 C1267.92186,898.74218 1264.25002,898 1260.5,898 C1256.02081,898 1251.8021,898.74218 1247.84375,900.22656 C1243.8854,901.71094 1240.43491,903.74217 1237.49219,906.32031 C1234.54946,908.89845 1232.23178,911.91925 1230.53906,915.38281 C1228.84635,918.84637 1228,922.53123 1228,926.4375 C1228,930.96877 1228.84635,935.1354 1230.53906,938.9375 C1232.23178,942.7396 1234.71873,946.04686 1238,948.85938 L1238,963 L1252.0625,954.875 Z M1233,926.75 C1233,923.46873 1233.70312,920.38283 1235.10938,917.49219 C1236.51563,914.60155 1238.4427,912.08855 1240.89062,909.95312 C1243.33855,907.8177 1246.24217,906.12501 1249.60156,904.875 C1252.96095,903.62499 1256.59373,903 1260.5,903 C1263.62502,903 1266.68488,903.62499 1269.67969,904.875 C1272.67449,906.12501 1275.34374,907.8177 1277.6875,909.95312 C1280.03126,912.08855 1281.91926,914.60155 1283.35156,917.49219 C1284.78386,920.38283 1285.5,923.46873 1285.5,926.75 C1285.5,930.03127 1284.91407,933.11717 1283.74219,936.00781 C1282.57031,938.89845 1280.89064,941.41145 1278.70312,943.54688 C1276.51561,945.6823 1273.88543,947.37499 1270.8125,948.625 C1267.73957,949.87501 1264.3021,950.5 1260.5,950.5 C1259.40624,950.5 1257.89584,950.4349 1255.96875,950.30469 C1254.04166,950.17448 1252.5573,950.00521 1251.51562,949.79688 L1243,955.5 L1243,946.67188 C1239.92707,944.17186 1237.4922,941.26825 1235.69531,937.96094 C1233.89843,934.65363 1233,930.91669 1233,926.75 Z M1295.34375,920.8125 C1295.39583,921.17709 1295.4349,921.54166 1295.46094,921.90625 C1295.48698,922.27084 1295.5,922.63541 1295.5,923 C1295.5,923.78125 1295.46094,924.5625 1295.38281,925.34375 C1295.30469,926.125 1295.21354,926.90625 1295.10938,927.6875 C1296.82813,929.66668 1298.15625,931.84113 1299.09375,934.21094 C1300.03125,936.58074 1300.5,939.09374 1300.5,941.75 C1300.5,943.83334 1300.20052,945.83853 1299.60156,947.76562 C1299.0026,949.69272 1298.15626,951.51562 1297.0625,953.23438 C1295.96874,954.95313 1294.65365,956.51562 1293.11719,957.92188 C1291.58072,959.32813 1289.87501,960.57812 1288,961.67188 L1288,970.5 L1279.48438,964.79688 C1278.4427,965.00521 1277.37501,965.17448 1276.28125,965.30469 C1275.18749,965.4349 1274.09376,965.5 1273,965.5 C1269.77082,965.5 1267.11459,965.04428 1265.03125,964.13281 C1262.94791,963.22135 1260.73439,961.95834 1258.39062,960.34375 C1257.71354,960.39583 1257.02344,960.4349 1256.32031,960.46094 C1255.61718,960.48698 1254.92709,960.5 1254.25,960.5 C1253.72916,960.5 1253.23438,960.48698 1252.76562,960.46094 C1252.29687,960.4349 1251.80209,960.39583 1251.28125,960.34375 C1254.25001,963.26043 1257.41405,965.57812 1260.77344,967.29688 C1264.13283,969.015634 1268.20831,969.875 1273,969.875 C1274.04167,969.875 1275.05729,969.835938 1276.04688,969.757812 C1277.03646,969.679687 1278.02604,969.562501 1279.01562,969.40625 L1293,978 L1293,963.85938 C1294.87501,962.55729 1296.59374,961.08595 1298.15625,959.44531 C1299.71876,957.80468 1301.03385,956.02084 1302.10156,954.09375 C1303.16928,952.16666 1304.0026,950.14845 1304.60156,948.03906 C1305.20052,945.92968 1305.5,943.72918 1305.5,941.4375 C1305.5,937.37498 1304.58855,933.57293 1302.76562,930.03125 C1300.9427,926.48957 1298.46877,923.41668 1295.34375,920.8125 Z" id="Fill-1"></path>
        </g>
    </g>
</svg>