<svg height="353" width="353" xmlns="http://www.w3.org/2000/svg"><path d="M301.624 51.376C335.875 85.626 353 127.334 353 176.5c0 48.614-17.263 90.183-51.79 124.71C266.683 335.737 225.114 353 176.5 353s-90.183-17.263-124.71-51.79C17.263 266.683 0 225.114 0 176.5S17.263 86.317 51.79 51.79C86.317 17.263 127.886 0 176.5 0h17.401v145.84c12.154 6.63 18.23 16.85 18.23 30.66 0 9.391-3.59 17.678-10.772 24.86-7.181 7.18-15.468 10.771-24.859 10.771s-17.678-3.59-24.86-10.772c-7.18-7.181-10.771-15.468-10.771-24.859 0-13.81 6.076-24.03 18.23-30.66v-37.288c-15.468 4.42-28.174 12.705-38.118 24.859-9.943 12.153-14.915 26.516-14.915 43.089 0 19.335 6.905 35.908 20.716 49.718 13.81 13.811 30.383 20.716 49.718 20.716s35.908-6.905 49.718-20.716c13.811-13.81 20.716-30.383 20.716-49.718 0-18.23-6.905-34.803-20.716-49.718l24.86-24.86c20.992 20.993 31.488 45.852 31.488 74.578 0 29.279-10.358 54.276-31.074 74.992s-45.713 31.074-74.992 31.074-54.276-10.358-74.992-31.074-31.074-45.713-31.074-74.992c0-25.964 8.425-48.751 25.274-68.363 16.849-19.61 37.979-31.626 63.39-36.045V36.46c-34.802 4.42-64.219 19.887-88.25 46.404-24.03 26.516-36.045 57.728-36.045 93.636 0 38.67 13.948 71.953 41.846 99.851 27.898 27.898 61.181 41.846 99.851 41.846s71.953-13.948 99.851-41.846c27.898-27.898 41.846-61.181 41.846-99.851 0-39.222-13.81-72.644-41.432-100.265z" fill="#0d6697" fill-rule="evenodd"/></svg>